<?xml version="1.0" encoding="UTF-8"?>
<svg width="20px" height="20px" viewBox="0 0 20 20" version="1.1" xmlns="http://www.w3.org/2000/svg" xmlns:xlink="http://www.w3.org/1999/xlink">
    <title>whatsapp</title>
    <g id="whatsapp" stroke="none" stroke-width="1" fill="none" fill-rule="evenodd">
        <circle id="椭圆形" fill="#333333" cx="10" cy="10" r="10"></circle>
        <path d="M10.5229928,4 C11.9881638,4.0006875 13.3630997,4.56833334 14.3971214,5.5984375 C15.4273219,6.61919459 16.004485,8.00785535 15.9999738,9.45485416 C15.998566,12.4601458 13.5414984,14.9055833 10.5229928,14.9055833 L10.5206909,14.9055833 C9.60406696,14.905125 8.70332629,14.6764167 7.90340966,14.2421458 L5,15 L5.77712764,12.1755208 C5.29701105,11.3469711 5.0448375,10.4070336 5.04603836,9.4505 C5.04718932,6.44497916 7.50425701,4 10.5229928,4 Z M8.58385673,6.93333334 C8.49247057,6.93333334 8.34445721,6.96725 8.21900267,7.10360416 C8.09354811,7.23995833 7.74020365,7.5695 7.74020365,8.2398125 C7.74020365,8.91035416 8.23051226,9.55797916 8.29887924,9.64872916 C8.36724622,9.73970833 9.26384342,11.1153958 10.6367075,11.7052708 C10.9631196,11.8455208 11.2179419,11.9293958 11.4168277,11.9921875 C11.7446209,12.0957708 12.0429495,12.0813333 12.2786659,12.0462708 C12.541545,12.0070833 13.0882506,11.7167292 13.2024258,11.3986458 C13.3163707,11.0803333 13.3163707,10.807625 13.2823024,10.7507917 C13.2480038,10.6941875 13.1568478,10.6600417 13.0198837,10.59175 C12.8831497,10.5236875 12.210299,10.1941458 12.0848444,10.1487708 C11.9593899,10.1031667 11.8682339,10.0804792 11.7768477,10.2168333 C11.6856918,10.3531875 11.4235033,10.6600417 11.3436267,10.7507917 C11.2637501,10.8417708 11.1838736,10.8532292 11.0471396,10.7851667 C10.9101755,10.716875 10.4693581,10.5729583 9.94682261,10.109125 C9.53984344,9.74795834 9.26522457,9.30177084 9.185348,9.16541666 C9.10547143,9.0290625 9.17683091,8.9555 9.24519788,8.8874375 C9.30688929,8.82647916 9.38216203,8.72839584 9.450529,8.64910416 C9.51912617,8.56935416 9.54191516,8.51252083 9.58749315,8.42177084 C9.63307114,8.33079167 9.61028214,8.25127084 9.57598356,8.18297916 C9.54191517,8.11491666 9.26821707,7.44460416 9.15404192,7.17189584 C9.04308945,6.90629166 8.93029545,6.94227083 8.84627542,6.93791666 C8.76639885,6.93402083 8.67524289,6.93333334 8.58385673,6.93333334 Z" id="形状结合" fill="#FFFFFF" fill-rule="nonzero"></path>
    </g>
</svg>