<?xml version="1.0" encoding="UTF-8"?>
<svg width="20px" height="20px" viewBox="0 0 20 20" version="1.1" xmlns="http://www.w3.org/2000/svg" xmlns:xlink="http://www.w3.org/1999/xlink">
    <title>chat</title>
    <g id="chat" stroke="none" stroke-width="1" fill="none" fill-rule="evenodd">
        <circle id="椭圆形" fill="#333333" cx="10" cy="10" r="10"></circle>
        <path d="M4,5.5 L4,11.6689768 C4,11.9327684 4.21384534,12.1466138 4.47763694,12.1466138 C4.60121516,12.1466138 4.71998357,12.0987171 4.80898876,12.012987 L5.47275051,11.3736494 C5.56592294,11.2839054 5.69025211,11.2337662 5.81961629,11.2337662 L6.73595506,11.2337662 C7.01209743,11.2337662 7.23595506,11.0099086 7.23595506,10.7337662 L7.23595506,7.05844156 C7.23595506,6.78229918 7.45981268,6.55844156 7.73595506,6.55844156 L11.5898876,6.55844156 C11.86603,6.55844156 12.0898876,6.33458393 12.0898876,6.05844156 L12.0898876,5.5 C12.0898876,5.22385763 11.86603,5 11.5898876,5 L4.5,5 C4.22385763,5 4,5.22385763 4,5.5 Z M7.91011236,7.70779221 L7.91011236,12.9415584 C7.91011236,13.2177008 8.13396998,13.4415584 8.41011236,13.4415584 L14.1803837,13.4415584 C14.3097479,13.4415584 14.4340771,13.4916976 14.5272495,13.5814416 L15.1910112,14.2207792 C15.3810028,14.4037798 15.6833727,14.3981124 15.8663733,14.2081208 C15.9521034,14.1191156 16,14.0003472 16,13.876769 L16,7.70779221 C16,7.43164983 15.7761424,7.20779221 15.5,7.20779221 L8.41011236,7.20779221 C8.13396998,7.20779221 7.91011236,7.43164983 7.91011236,7.70779221 Z" id="形状" fill="#FFFFFF" fill-rule="nonzero"></path>
    </g>
</svg>