<?xml version="1.0" encoding="UTF-8"?>
<svg width="20px" height="20px" viewBox="0 0 20 20" version="1.1" xmlns="http://www.w3.org/2000/svg" xmlns:xlink="http://www.w3.org/1999/xlink">
    <title>tele</title>
    <g id="tele" stroke="none" stroke-width="1" fill="none" fill-rule="evenodd">
        <circle id="椭圆形" fill="#333333" cx="10" cy="10" r="10"></circle>
        <path d="M12.0604396,8.52739726 C12.2142857,8.71765601 12.3791209,8.91171994 12.5549451,9.10958904 C12.7014652,9.28462709 12.8644689,9.47869102 13.043956,9.69178082 C13.2234432,9.90487062 13.4084249,10.1217656 13.5989011,10.3424658 C13.8406593,10.6316591 14.040293,10.890411 14.1978022,11.1187215 C14.3553114,11.347032 14.4798535,11.5563166 14.5714286,11.7465753 C14.6630037,11.9368341 14.7252747,12.1118721 14.7582418,12.2716895 C14.7912088,12.4315068 14.8076923,12.5913242 14.8076923,12.7511416 L14.8076923,13.4931507 C14.8076923,13.7214612 14.7710623,13.9269406 14.6978022,14.109589 C14.6245421,14.2922374 14.5238095,14.4501522 14.3956044,14.5833333 C14.2673993,14.7165145 14.1208791,14.8192542 13.956044,14.8915525 C13.7912088,14.9638508 13.6172161,15 13.4340659,15 L6.65384615,15 C6.45604396,15 6.26739927,14.9657534 6.08791209,14.8972603 C5.90842491,14.8287671 5.75091575,14.7317352 5.61538462,14.6061644 C5.47985348,14.4805936 5.37179487,14.3302892 5.29120879,14.1552511 C5.21062271,13.9802131 5.17032967,13.782344 5.17032967,13.5616438 L5.17032967,12.6826484 C5.17032967,12.5 5.18681319,12.3249619 5.21978022,12.1575342 C5.25274725,11.9901065 5.31318681,11.8150685 5.4010989,11.6324201 C5.48901099,11.4497717 5.60989011,11.2538052 5.76373626,11.0445205 C5.91758242,10.8352359 6.11172161,10.6050228 6.34615385,10.3538813 C6.53663004,10.1407915 6.73260073,9.92579909 6.93406593,9.70890411 C7.13553114,9.49200913 7.31684982,9.29604262 7.47802198,9.12100457 C7.66849817,8.91552511 7.85164835,8.71765601 8.02747253,8.52739726 L12.0604396,8.52739726 Z M9.99450549,12.8538813 C10.1849817,12.8538813 10.3644689,12.8158295 10.532967,12.739726 C10.7014652,12.6636225 10.8479853,12.5608828 10.9725275,12.4315068 C11.0970696,12.3021309 11.1959707,12.1480213 11.2692308,11.9691781 C11.3424908,11.7903349 11.3791209,11.6019787 11.3791209,11.4041096 C11.3791209,11.2062405 11.3424908,11.0197869 11.2692308,10.8447489 C11.1959707,10.6697108 11.0970696,10.5175038 10.9725275,10.3881279 C10.8479853,10.2587519 10.7014652,10.1560122 10.532967,10.0799087 C10.3644689,10.0038052 10.1849817,9.96575342 9.99450549,9.96575342 C9.8040293,9.96575342 9.62271062,10.0038052 9.45054945,10.0799087 C9.27838828,10.1560122 9.13003663,10.2587519 9.00549451,10.3881279 C8.88095238,10.5175038 8.78205128,10.6697108 8.70879121,10.8447489 C8.63553114,11.0197869 8.5989011,11.2062405 8.5989011,11.4041096 C8.5989011,11.6019787 8.63553114,11.7903349 8.70879121,11.9691781 C8.78205128,12.1480213 8.88095238,12.3021309 9.00549451,12.4315068 C9.13003663,12.5608828 9.27838828,12.6636225 9.45054945,12.739726 C9.62271062,12.8158295 9.8040293,12.8538813 9.99450549,12.8538813 Z M15.5,7.14611872 L15.5,7.8652968 C15.5,8.06316591 15.4322344,8.23059361 15.2967033,8.36757991 C15.1611722,8.50456621 14.9981685,8.57305936 14.8076923,8.57305936 L13.4340659,8.57305936 C13.2435897,8.57305936 13.0824176,8.50456621 12.9505495,8.36757991 C12.8186813,8.23059361 12.7527473,8.06316591 12.7527473,7.8652968 L12.7527473,7.14611872 L7.24725275,7.14611872 L7.24725275,7.8652968 C7.24725275,8.06316591 7.18131868,8.23059361 7.04945055,8.36757991 C6.91758242,8.50456621 6.75641026,8.57305936 6.56593407,8.57305936 L5.19230769,8.57305936 C5.0018315,8.57305936 4.83882784,8.50456621 4.7032967,8.36757991 C4.56776557,8.23059361 4.5,8.06316591 4.5,7.8652968 L4.5,7.12328767 C4.5,7.03196347 4.52197802,6.95395738 4.56593407,6.88926941 C4.60989011,6.82458143 4.66483516,6.76560122 4.73076923,6.71232877 C4.7967033,6.65905632 4.86996337,6.61149163 4.95054945,6.5696347 C5.03113553,6.52777778 5.11172161,6.48021309 5.19230769,6.42694064 C5.27289377,6.38127854 5.45421245,6.2804414 5.73626374,6.12442922 C6.01831502,5.96841705 6.37362637,5.80669711 6.8021978,5.63926941 C7.23076923,5.4718417 7.71794872,5.32343988 8.26373626,5.19406393 C8.80952381,5.06468798 9.39010989,5 10.0054945,5 C10.7087912,5 11.3369963,5.06468798 11.8901099,5.19406393 C12.4432234,5.32343988 12.9230769,5.4718417 13.3296703,5.63926941 C13.7362637,5.80669711 14.0622711,5.96841705 14.3076923,6.12442922 C14.5531136,6.2804414 14.7197802,6.38127854 14.8076923,6.42694064 C14.8956044,6.48021309 14.9798535,6.52777778 15.0604396,6.5696347 C15.1410256,6.61149163 15.2142857,6.65905632 15.2802198,6.71232877 C15.3461538,6.76560122 15.3992674,6.82458143 15.4395604,6.88926941 C15.4798535,6.95395738 15.5,7.03196347 15.5,7.12328767 L15.5,7.14611872 Z" id="形状" fill="#FFFFFF" fill-rule="nonzero"></path>
    </g>
</svg>