<?xml version="1.0" encoding="UTF-8"?>
<svg width="20px" height="20px" viewBox="0 0 20 20" version="1.1" xmlns="http://www.w3.org/2000/svg" xmlns:xlink="http://www.w3.org/1999/xlink">
    <title>add</title>
    <g id="add" stroke="none" stroke-width="1" fill="none" fill-rule="evenodd">
        <circle id="椭圆形" fill="#333333" cx="10" cy="10" r="10"></circle>
        <path d="M10.2932884,4.00907907 C7.92207623,4.00907907 6.00201231,5.93128551 6.00201231,8.30036695 C6.00201231,8.79214015 6.08540483,9.26466619 6.23721591,9.70512547 L6.23721591,9.71154119 L6.24361979,9.72437263 C6.3160486,9.92857112 6.40323003,10.1272326 6.50447443,10.3187855 L6.50661695,10.3230587 L6.50874763,10.3273319 C6.54938447,10.4021662 6.59214015,10.4770005 6.63705019,10.5497041 L6.64131155,10.5561198 L6.64345407,10.560393 L9.48507339,15.4824337 C9.84428267,16.1024976 10.7401634,16.1024976 11.097242,15.4824337 L13.9516809,10.5454309 L13.9645123,10.5261837 L14.0564512,10.3658262 C14.0607244,10.3594105 14.0649976,10.3529948 14.0671402,10.3465791 L14.0692708,10.3401634 L14.0714134,10.3358902 C14.1761837,10.1391809 14.2681226,9.93391335 14.3429569,9.72224195 L14.3493726,9.70941051 L14.3493726,9.70512547 C14.505256,9.25318731 14.5847457,8.77843358 14.5845765,8.30036695 C14.5845765,5.93128551 12.6623698,4.00907907 10.2932884,4.00907907 L10.2932884,4.00907907 Z M10.2932884,10.2075994 C9.16648911,10.2075994 8.25563447,9.29460227 8.25563447,8.16994555 C8.25563447,7.04528883 9.16863163,6.13226799 10.2932884,6.13226799 C11.4179451,6.13226799 12.3309541,7.04526515 12.3309541,8.16993371 C12.3309541,9.29460227 11.4179569,10.2075994 10.2932884,10.2075994 L10.2932884,10.2075994 Z" id="形状" fill="#FFFFFF" fill-rule="nonzero"></path>
    </g>
</svg>