<?xml version="1.0" encoding="UTF-8"?>
<svg width="48px" height="48px" viewBox="0 0 48 48" version="1.1" xmlns="http://www.w3.org/2000/svg" xmlns:xlink="http://www.w3.org/1999/xlink">
    <title>矩形</title>
    <g id="矩形" stroke="none" stroke-width="1" fill="none" fill-rule="evenodd">
        <circle id="椭圆形" fill-opacity="0.750655594" fill="#000000" cx="24" cy="24" r="24"></circle>
        <g id="编组" transform="translate(9.000000, 9.000000)" fill="#FFFFFF">
            <path d="M21.2700866,17.9728501 L22.7299134,18.3176773 C21.8971784,21.8430631 19.3591745,23.6884516 15.3141267,23.7785177 L15,23.7819824 L15,22.2819824 C18.4614782,22.2819824 20.4650231,20.9543749 21.2061808,18.2248526 L21.2700866,17.9728501 Z" id="路径-11" fill-rule="nonzero"></path>
            <path d="M9,12 C9.55228475,12 10,12.4477153 10,13 L10,18 C10,18.5522847 9.55228475,19 9,19 L5,19 C4.44771525,19 4,18.5522847 4,18 L4,13 C4,12.4477153 4.44771525,12 5,12 L9,12 Z M8.499,13.5 L5.499,13.5 L5.499,17.5 L8.499,17.5 L8.499,13.5 Z" id="矩形" fill-rule="nonzero"></path>
            <path d="M24,12 C24.5522847,12 25,12.4477153 25,13 L25,18 C25,18.5522847 24.5522847,19 24,19 L20,19 C19.4477153,19 19,18.5522847 19,18 L19,13 C19,12.4477153 19.4477153,12 20,12 L24,12 Z M23.5,13.5 L20.5,13.5 L20.5,17.5 L23.5,17.5 L23.5,13.5 Z" id="矩形" fill-rule="nonzero"></path>
            <rect id="矩形" x="12" y="21" width="4" height="4" rx="2"></rect>
            <path d="M14.5,4.25 C18.9719723,4.25 22.6129023,7.80811562 22.7462179,12.247775 L22.75,12.5 L21.25,12.5 C21.25,8.77207794 18.2279221,5.75 14.5,5.75 C10.8513954,5.75 7.87891859,8.64484695 7.75408192,12.2630284 L7.75,12.5 L6.25,12.5 C6.25,7.94365081 9.94365081,4.25 14.5,4.25 Z" id="路径" fill-rule="nonzero"></path>
        </g>
    </g>
</svg>