<?xml version="1.0" encoding="utf-8"?>
<!-- Generator: Adobe Illustrator 24.2.3, SVG Export Plug-In . SVG Version: 6.00 Build 0)  -->
<svg version="1.1" id="图层_1" xmlns="http://www.w3.org/2000/svg" xmlns:xlink="http://www.w3.org/1999/xlink" x="0px" y="0px"
	 viewBox="0 0 199.7 36.8" style="enable-background:new 0 0 199.7 36.8;" xml:space="preserve">
<g>
	<polygon points="180.4,8.3 180.4,12.6 193.3,12.6 183.5,36.3 188.2,36.3 198.2,12.1 199.7,8.3 	"/>
	<g>
		<path d="M97,18.3c0-3.7,3.5-6.3,6.7-6.3c3.9,0,6.4,2.8,6.4,7.2v17h4.5V18.8c0-3.2,1.8-6.7,6.8-6.7c3.9,0,6.4,2.8,6.4,7.2v17h4.5
			v-17c0-7-4-11.4-10.3-11.4c-3.8,0-7,1.6-9,4.5c-1.3-2.2-3.8-4.5-8.3-4.5c-3.1,0-5.7,1.1-7.5,3.1V8.3h-4.5v28H97V18.3z"/>
		<path d="M46,21.9c0-4.2-1.4-7.8-3.8-10.4c-2.3-2.4-5.6-3.7-9.2-3.7c-8.2,0-14.1,6.1-14.1,14.5c0,8.5,5.7,14.4,14,14.4
			c5.5,0,9.7-2.3,12.3-6.8l0.2-0.4L41.6,27l-0.2,0.4c-2,3.4-4.7,5-8.4,5c-5.2,0-9.2-3.9-9.5-9.2H46V21.9z M23.6,19.3
			c1.1-4.3,4.8-7.3,9.3-7.3c4.4,0,7.8,2.9,8.6,7.3H23.6z"/>
		<polygon points="4.5,12.5 17.2,12.5 17.2,8.3 0,8.3 0,36.3 4.5,36.3 		"/>
		<path d="M149.9,36.7c5.5,0,9.7-2.3,12.3-6.8l0.2-0.4l-3.8-2.5l-0.2,0.4c-2,3.4-4.7,5-8.4,5c-5.2,0-9.2-3.9-9.5-9.2h22.7v-1.4
			c0-4.2-1.4-7.8-3.8-10.4c-2.3-2.4-5.6-3.7-9.2-3.7c-8.2,0-14.1,6.1-14.1,14.5C136,30.7,141.7,36.7,149.9,36.7z M140.6,19.3
			c1.1-4.3,4.8-7.3,9.3-7.3c4.4,0,7.8,2.9,8.6,7.3H140.6z"/>
		<rect x="82.3" width="4.5" height="36.3"/>
		<path d="M63.4,36.8c3.3,0,6.3-1.1,8.7-3v2.6h4.4v-28h-4.4v2.6c-2.3-1.9-5.4-3-8.7-3c-4,0-7.6,1.5-10.2,4.2c-2.6,2.7-4,6.3-4,10.3
			c0,4,1.4,7.6,4,10.3C55.8,35.3,59.5,36.8,63.4,36.8z M53.7,22.4c0-5.7,4.1-10,9.5-10c5.6,0,9.4,4,9.4,10c0,6-3.8,10-9.4,10
			C57.8,32.3,53.7,28,53.7,22.4z"/>
	</g>
</g>
</svg>
